<svg version="1.2" xmlns="http://www.w3.org/2000/svg" viewBox="0 0 197 41" width="197" height="41">
	<title>atayatirim,165</title>
	<style>
		.s0 { fill: #006b81 } 
		.s1 { fill: #ec7922 } 
	</style>
	<g id="&lt;Group&gt;">
		<path id="&lt;Compound Path&gt;" fill-rule="evenodd" class="s0" d="m56.7 12.2h3.9l9.4 21.6h-5.4l-1.8-4.5h-8.4l-1.8 4.5h-5.3zm1.9 6.3l-2.7 6.7h5.3z"/>
		<path id="&lt;Path&gt;" class="s0" d="m80.8 22.7h-4v4.9c0 1.6 0.1 2.8 2.1 2.8 0.5 0 1.5-0.1 1.9-0.5v3.9c-1 0.3-2.2 0.4-3.2 0.4-3.1 0-5.4-1.2-5.4-4.5v-7h-3v-3.7h3v-4.4h4.6v4.4h4z"/>
		<path id="&lt;Compound Path&gt;" fill-rule="evenodd" class="s0" d="m93 32c-1 1.6-2.9 2.2-4.7 2.2-2.8 0-5.3-1.6-5.3-4.6 0-5.1 6.2-5.2 10-5.2 0-1.6-1.3-2.6-2.9-2.6-1.5 0-2.8 0.6-3.7 1.7l-2.5-2.5c1.7-1.6 4.2-2.4 6.6-2.4 5.3 0 6.7 2.8 6.7 7.7v7.5h-4.2zm-1.1-4.6c-1.4 0-4.5 0.1-4.5 2.1 0 1.1 1.1 1.7 2.1 1.7 1.8 0 3.5-1 3.5-2.8v-1z"/>
		<path id="&lt;Path&gt;" class="s0" d="m39.4 39.2l-17.5-30.7-17.5 30.7h0.2l20.4-25.3-13.7 25.3h0.1l16.7-19.9-10.6 19.9h0.1l13.7-14.3-7.6 14.3h0.1l10.5-8.8-4.5 8.8h0.1l7.2-3.9-1.1 3.9z"/>
		<path id="&lt;Path&gt;" class="s0" d="m38.9 33.9c2.5-3.4 3.9-7.7 3.9-12.3 0-11.5-9.3-21.6-20.9-21.6-11.5 0-20.9 10.1-20.9 21.6 0 4.6 1.4 8.8 3.9 12.3l17-29.5z"/>
		<g id="&lt;Group&gt;">
			<path id="&lt;Compound Path&gt;" fill-rule="evenodd" class="s1" d="m107.1 26.2v7.6h-3.6v-20.5h7.9q3.4 0 5.4 1.8 2.1 1.8 2.1 4.7 0 3-2 4.7-2 1.7-5.6 1.7zm0-2.9h4.3q1.9 0 2.9-0.9 1-0.9 1-2.6 0-1.6-1-2.6-1-1-2.8-1h-4.4z"/>
			<path id="&lt;Compound Path&gt;" fill-rule="evenodd" class="s1" d="m119.7 26.1q0-2.3 0.9-4.1 0.8-1.8 2.5-2.8 1.6-0.9 3.7-0.9 3 0 5 2 1.9 2 2 5.2l0.1 0.9q0 2.2-0.9 4-0.9 1.8-2.5 2.7-1.6 1-3.7 1-3.3 0-5.2-2.1-1.9-2.2-1.9-5.8zm3.4 0.3q0 2.4 1 3.7 0.9 1.3 2.7 1.3 1.7 0 2.7-1.3 0.9-1.4 0.9-4 0-2.3-0.9-3.6-1-1.4-2.7-1.4-1.7 0-2.7 1.3-1 1.4-1 4z"/>
			<path id="&lt;Compound Path&gt;" class="s1" d="m143.6 21.7q-0.7-0.1-1.4-0.1-2.4 0-3.2 1.8v10.4h-3.4v-15.2h3.3l0.1 1.7q1.2-2 3.4-2 0.7 0 1.2 0.2z"/>
			<path id="&lt;Compound Path&gt;" class="s1" d="m150.8 14.9v3.7h2.7v2.5h-2.7v8.5q0 0.9 0.3 1.3 0.4 0.4 1.3 0.4 0.5 0 1.2-0.2v2.7q-1.2 0.3-2.3 0.3-4 0-4-4.3v-8.7h-2.5v-2.5h2.5v-3.7z"/>
			<path id="&lt;Compound Path&gt;" class="s1" d="m157.3 33.8v-12.7h-2.3v-2.5h2.3v-1.4q0-2.6 1.4-4 1.4-1.3 4-1.3 0.9 0 1.9 0.2l-0.1 2.7q-0.6-0.1-1.3-0.1-2.5 0-2.5 2.5v1.4h3.1v2.5h-3.1v12.7z"/>
			<path id="&lt;Compound Path&gt;" fill-rule="evenodd" class="s1" d="m165.7 26.1q0-2.3 0.9-4.1 0.9-1.8 2.5-2.8 1.6-0.9 3.7-0.9 3.1 0 5 2 1.9 2 2.1 5.2v0.9q0 2.2-0.9 4-0.9 1.8-2.5 2.7-1.6 1-3.7 1-3.2 0-5.2-2.1-1.9-2.2-1.9-5.8zm2-11.5q0-0.7 0.5-1.2 0.5-0.4 1.3-0.4 0.8 0 1.3 0.4 0.5 0.5 0.5 1.2 0 0.7-0.5 1.2-0.5 0.5-1.3 0.5-0.8 0-1.3-0.5-0.5-0.5-0.5-1.2zm1.4 11.8q0 2.4 1 3.7 1 1.3 2.7 1.3 1.7 0 2.7-1.3 1-1.4 1-4 0-2.3-1-3.6-1-1.4-2.7-1.4-1.7 0-2.7 1.3-1 1.4-1 4zm5.1-11.8q0-0.7 0.4-1.1 0.5-0.5 1.3-0.5 0.9 0 1.3 0.5 0.5 0.4 0.5 1.1 0 0.7-0.5 1.2-0.4 0.5-1.3 0.5-0.8 0-1.3-0.5-0.4-0.5-0.4-1.2z"/>
			<path id="&lt;Compound Path&gt;" class="s1" d="m188.1 28.9l3.1-10.3h3.7l-6.1 17.5q-1.4 3.9-4.7 3.9-0.8 0-1.7-0.3v-2.6h0.7q1.3 0 1.9-0.5 0.7-0.4 1.1-1.5l0.5-1.3-5.4-15.2h3.7z"/>
		</g>
	</g>
</svg>